<svg width="100%" height="100%" viewBox="0 0 200 200" version="1.1" xmlns="http://www.w3.org/2000/svg" xmlns:xlink="http://www.w3.org/1999/xlink" xml:space="preserve" xmlns:serif="http://www.serif.com/" style="fill-rule:evenodd;clip-rule:evenodd;stroke-linejoin:round;stroke-miterlimit:2;">
    <g transform="matrix(8.87963,0,0,8.87963,-427.823,-450.306)">
        <path d="M54.006,70.494C53.846,70.494 53.71,70.438 53.598,70.326C53.486,70.214 53.43,70.078 53.43,69.918L53.43,54.03C53.43,53.87 53.486,53.734 53.598,53.622C53.71,53.51 53.846,53.454 54.006,53.454L56.142,53.454C56.318,53.454 56.458,53.51 56.562,53.622C56.666,53.734 56.718,53.87 56.718,54.03L56.718,59.502C57.15,58.99 57.678,58.574 58.302,58.254C58.926,57.934 59.694,57.774 60.606,57.774C61.582,57.774 62.434,57.994 63.162,58.434C63.89,58.874 64.454,59.494 64.854,60.294C65.254,61.094 65.454,62.054 65.454,63.174L65.454,69.918C65.454,70.078 65.398,70.214 65.286,70.326C65.174,70.438 65.038,70.494 64.878,70.494L62.718,70.494C62.558,70.494 62.422,70.438 62.31,70.326C62.198,70.214 62.142,70.078 62.142,69.918L62.142,63.318C62.142,62.39 61.914,61.662 61.458,61.134C61.002,60.606 60.342,60.342 59.478,60.342C58.646,60.342 57.978,60.606 57.474,61.134C56.97,61.662 56.718,62.39 56.718,63.318L56.718,69.918C56.718,70.078 56.666,70.214 56.562,70.326C56.458,70.438 56.318,70.494 56.142,70.494L54.006,70.494Z" style="fill:white;fill-rule:nonzero;"/>
    </g>
</svg>
